<?xml version="1.0" standalone="no"?>
<!DOCTYPE svg PUBLIC "-//W3C//DTD SVG 20010904//EN"
 "http://www.w3.org/TR/2001/REC-SVG-20010904/DTD/svg10.dtd">
<svg version="1.0" xmlns="http://www.w3.org/2000/svg"
 width="256.000000pt" height="256.000000pt" viewBox="0 0 256.000000 256.000000"
 preserveAspectRatio="xMidYMid meet">
<metadata>
Created by potrace 1.14, written by Peter Selinger 2001-2017
</metadata>
<g transform="translate(0.000000,256.000000) scale(0.100000,-0.100000)"
fill="#000000" stroke="none">
<path d="M1145 2474 c-168 -26 -282 -62 -418 -132 -317 -162 -546 -464 -623
-822 -26 -118 -26 -362 0 -480 102 -474 462 -834 936 -936 118 -26 362 -26
480 0 474 102 834 462 936 936 26 118 26 362 0 480 -101 467 -454 826 -916
931 -83 19 -327 33 -395 23z m365 -294 c328 -85 582 -338 671 -670 33 -122 33
-338 0 -460 -89 -332 -339 -582 -671 -671 -122 -33 -338 -33 -460 0 -332 89
-582 339 -671 671 -33 122 -33 338 0 460 99 368 395 633 776 693 72 12 271 -1
355 -23z"/>
<path d="M1805 1819 c-16 -5 -138 -92 -270 -194 -132 -102 -244 -185 -248
-185 -5 0 -81 70 -170 155 -163 157 -195 178 -251 168 -14 -3 -40 -21 -57 -41
-28 -31 -31 -41 -26 -80 6 -51 3 -49 271 -305 l179 -172 47 0 c40 0 53 5 86
35 21 19 153 122 292 229 139 106 261 205 272 218 36 47 19 135 -32 160 -37
19 -61 22 -93 12z"/>
</g>
</svg>
